<svg id="Layer_1" data-name="Layer 1" xmlns="http://www.w3.org/2000/svg" viewBox="0 0 135 75"><defs><style>.cls-1{fill:#fff;}</style></defs><title>nike</title><g id="Canvas"><g id="Nike"><g id="Nike-2" data-name="Nike"><path id="path0_fill" data-name="path0 fill" class="cls-1" d="M16.94769,26.25567s-3.47647,6.795-3.47647,12.67087c0,0-.32281,13.84877,13.546,13.84877h1.89964s2.78115.91889,50.757-13.84877H67.51855L66.88523,23.3824,61.19876,38.92654h-8.741L66.25206,1.15978h8.35606l-3.787,10.846,8.9769-10.846h26.3345L103.86039,7.437H94.87117L92.09,15.40968h8.34359l-2.65713,7.05383H89.55707l-3.29029,9.27984h9.87088l-.75749,2.74391S131.20072,24.9484,135,23.90015c0,0-102.11,49.94584-118.8221,49.94584,0,0-16.12848.10355-16.12848-13.48635C.04942,60.35964-1.78817,47.67587,16.94769,26.25567ZM76.01108,36.31243,88.241,2.16955,75.24129,16.45823ZM56.00883,1.15978,42.41314,38.92654h8.443l13.67-37.76676ZM18.1894,38.92654h8.44284l6.07158-16.463-.67054,16.463h8.952L54.65542,1.15978H46.29936L40.054,17.84295,41.05973,1.15978H32.03328ZM24.534,47.6373a1.921,1.921,0,0,1-.23588.9318,1.86054,1.86054,0,0,1-.65809.67307,1.79617,1.79617,0,0,1-1.81271,0,1.8606,1.8606,0,0,1-.65808-.67307,1.89685,1.89685,0,0,1,0-1.87665,1.78549,1.78549,0,0,1,3.12888,0A1.93574,1.93574,0,0,1,24.534,47.6373Zm-.34759.0003a1.52939,1.52939,0,0,0-.4222-1.07422,1.37641,1.37641,0,0,0-1.03046-.44,1.43977,1.43977,0,0,0-1.354.92319,1.54774,1.54774,0,0,0,.32341,1.65235,1.40532,1.40532,0,0,0,1.03059.44,1.42605,1.42605,0,0,0,1.03046-.44A1.52077,1.52077,0,0,0,24.18636,47.6376Zm-2.27215-1.01h.85658a.75994.75994,0,0,1,.53392.15532.53919.53919,0,0,1,.16141.4142.52275.52275,0,0,1-.12418.34937.73253.73253,0,0,1-.39728.2071c.07447.03887.13663.06468.17387.09064a1.69957,1.69957,0,0,1,.14894.2071c0,.01291.11171.194.3105.58243h-.57115a4.67444,4.67444,0,0,0-.37251-.686.247.247,0,0,0-.18633-.11645.54884.54884,0,0,1-.062.0129v.78953h-.47176Zm.47176.85465h.2111a.57069.57069,0,0,0,.298-.06468.27591.27591,0,0,0,.08679-.18114.19812.19812,0,0,0-.08679-.18128.3882.3882,0,0,0-.27326-.07759H22.386ZM111.53359,3.02385a1.92131,1.92131,0,0,1-.23588.93187,1.78541,1.78541,0,0,1-3.12888,0,1.89687,1.89687,0,0,1,0-1.87669,1.78541,1.78541,0,0,1,3.12888,0A1.93557,1.93557,0,0,1,111.53359,3.02385Zm-.34774.00013a1.476,1.476,0,0,0-.42206-1.07423,1.42657,1.42657,0,0,0-2.061,0,1.56152,1.56152,0,0,0,0,2.13554,1.42659,1.42659,0,0,0,2.061,0A1.46716,1.46716,0,0,0,111.18585,3.024Zm-2.272-1.0098h.85658a.76048.76048,0,0,1,.53392.15531.53914.53914,0,0,1,.1614.41417.523.523,0,0,1-.12416.34946.69572.69572,0,0,1-.38483.20707,1.61987,1.61987,0,0,1,.1614.09061.95049.95049,0,0,1,.14895.20707c0,.013.11171.19415.3105.58243h-.57116a3.04217,3.04217,0,0,0-.37251-.686.23229.23229,0,0,0-.18632-.10354h-.062v.7895h-.47176Zm.47176.854h.21109a.57166.57166,0,0,0,.2979-.06472.22981.22981,0,0,0,.08693-.1812.198.198,0,0,0-.08693-.18119.38786.38786,0,0,0-.27312-.07766h-.23587Z"/></g></g></g></svg>