<svg id="Layer_1" data-name="Layer 1" xmlns="http://www.w3.org/2000/svg" viewBox="0 0 135 75"><defs><style>.cls-1{fill:#fff;}</style></defs><title>penguin</title><path class="cls-1" d="M67.43306.00006C41.26664.05158,40.15815,31.87029,40.16963,37.7136c.0336,17.727,7.44323,37.32661,27.40751,37.28634,19.96312-.03724,27.28764-19.78467,27.25319-37.51173C94.81978,31.64444,93.59887-.05022,67.43306.00006Zm.14238,73.93414c-18.96652.03787-24.08214-19.62266-24.1148-36.46454l-.00279-.56739C43.416,30.08579,43.237.92552,67.34849.879,91.57269.833,91.54336,30.41724,91.53669,37.06357v.47367C91.56865,54.37857,86.54055,73.8982,67.57544,73.9342Z"/><path class="cls-1" d="M75.76885,17.74869c-.22112-2.66433-.06114-5.64227-1.896-7.84295a6.746,6.746,0,0,0-2.03744-1.61412,6.36914,6.36914,0,0,0-2.73688-.66445,8.97918,8.97918,0,0,0-2.52646.3714,20.31776,20.31776,0,0,1-2.92534.75857,8.65587,8.65587,0,0,1-3.22885-.1433c-.67649-.14718-.86013-.20336-1.53708-.34526-.36993-.07712-1.38873-.36358-1.70559-.05362-.75981.74158.85927,1.64423,1.33884,1.98429a28.85527,28.85527,0,0,1,2.505,1.84882,8.13766,8.13766,0,0,1,2.86024,4.25417,6.79341,6.79341,0,0,1,.16448,1.51263c.09893,7.4402-12.60826,14.74369-12.43183,27.918.06153,4.65777,2.60847,5.42759,2.57418,2.83945a24.9321,24.9321,0,0,1,2.22876-9.22408c.26737-.65833,1.12129-.85478.93011.28133a46.01214,46.01214,0,0,0-.98892,10.01957,27.468,27.468,0,0,0,.27272,3.67933,19.52488,19.52488,0,0,0,.65693,2.9,12.43543,12.43543,0,0,0,.96,2.30511,9.42,9.42,0,0,0,1.11368,1.63375,8.89714,8.89714,0,0,0,1.39936,1.25326,2.03639,2.03639,0,0,1,.776.79984c.20855.53426-.49027.75151-.858.91483-.40415.17814-.76112.37529-1.14487.55731q-.82479.39394-1.62669.83126c-.33153.1807-.69789.29041-1.01522.499-.31415.20592-.47328.53341.01381.61131a3.46349,3.46349,0,0,0,.69347-.03391,2.90654,2.90654,0,0,1,1.16186.07309c.49959.19024.47328.6567.49423,1.11128.02359.492.37211.64824.81335.5303a3.54874,3.54874,0,0,0,1.27816-.85741,4.85322,4.85322,0,0,1,.9475-.65406,4.57407,4.57407,0,0,1,2.243-.18489c.40779.0208.9876.18761,1.31928-.13717.33953-.33106.0966-.90482-.05314-1.26622-.14478-.35015-.31733-.68494-.492-1.02244-.08023-.15416-.19474-.28917-.26659-.44806-.28878-.64886,2.02657-1.13991,2.36128-1.22875a20.5257,20.5257,0,0,1,3.45518-.64971,7.40711,7.40711,0,0,1,3.35044.324,2.78444,2.78444,0,0,1,1.10305.85478c.168.20506.55079.81024.20809,1.05712-.53163.37839-1.083.71232-1.60264,1.11a6.73814,6.73814,0,0,0-.92157.81815c-.209.23214-.26566.63575.15913.61309.55885-.02444,1.11942-.0571,1.68014-.061a2.11419,2.11419,0,0,1,1.17079.27737c.55164.36668.67112,1.14643,1.28833,1.44607a.80826.80826,0,0,0,.57174.02871c.40834-.11972.59455-.53466.8121-.85206a2.17409,2.17409,0,0,1,.72769-.752,1.39228,1.39228,0,0,1,.65561-.15114,11.13165,11.13165,0,0,1,1.23363.05493c.32214.03662.76516.18241,1.05037-.03305.5442-.409-.88239-1.322-1.16714-1.49565-.65468-.40415-1.58432-.817-1.78807-1.63468a4.33972,4.33972,0,0,1,.65926-2.8029,28.18328,28.18328,0,0,0,1.364-2.65782,13.647,13.647,0,0,0,.67974-2.67357c.71621-4.98519-.46668-10.28438-1.95612-15.04232-.17822-.57089-.40818-1.13386-.57624-1.70676-.25844-.89659.632-1.11128,1.087-.23307.43627.84042,3.28945,6.20013,4.12421,10.18817.52844,2.53772,2.484,2.63967,2.42925-1.86976-.07751-6.52879-2.60258-11.25531-5.68845-16.05771C79.26817,26.122,76.12133,21.99588,75.76885,17.74869ZM65.57928,10.10188a2.32007,2.32007,0,0,1,3.11294-.90746,2.103,2.103,0,0,1,.81513,2.27927,1.58039,1.58039,0,0,0-1.06783.62954,1.34742,1.34742,0,0,0-.24448,1.15023,2.08718,2.08718,0,0,1-2.18678.03631A2.27434,2.27434,0,0,1,65.57928,10.10188Zm-.84849,7.8729a8.0759,8.0759,0,0,1,1.36933-.76656,7.17319,7.17319,0,0,0,3.96035-3.583,1.67168,1.67168,0,0,0,.31267-.30461,1.34092,1.34092,0,0,0,.23851-1.17443c.09861-.05307.24843-.02716.46815.22865.72785.84662.68711,4.3399-.50672,5.55336a4.29638,4.29638,0,0,1-2.53918.89442l-.27738.03724a30.958,30.958,0,0,0-3.05793.62132C63.73279,19.71645,63.79548,18.701,64.73079,17.97478Zm8.84755,38.67243a5.55116,5.55116,0,0,1-1.46547-.22283,8.98614,8.98614,0,0,0-2.82975-.32276,14.33,14.33,0,0,0-3.30908.64312,7.13372,7.13372,0,0,1-3.66606.34945,4.25338,4.25338,0,0,1-3.32809-2.61507,14.709,14.709,0,0,1-.89411-5.0215l-.02312-.37661a48.96937,48.96937,0,0,1-.00427-6.07792c.0893-1.4605.246-2.91789.44015-4.3697.32206-2.41016.83778-4.78929,1.39346-7.15662a31.30441,31.30441,0,0,1,1.90406-6.13371,7.15733,7.15733,0,0,1,3.12241-3.533,6.43476,6.43476,0,0,1,5.418-.05338c3.35579,1.70567,3.46969,5.54219,3.56784,8.84677l.0187.6027a54.1692,54.1692,0,0,0,.89923,7.93931c.22663,1.22782.57143,2.43127.91591,3.6348a28.79517,28.79517,0,0,1,1.1036,4.92087C77.17728,50.91571,77.53628,56.46163,73.57834,56.64721Z"/></svg>