<svg id="Layer_1" data-name="Layer 1" xmlns="http://www.w3.org/2000/svg" viewBox="0 0 135 75"><defs><style>.cls-1{fill:#fff;}</style></defs><title>red-bull</title><g id="Canvas"><g id="Red_Bull" data-name="Red Bull"><g id="Red_Bull-2" data-name="Red Bull"><path id="path0_fill" data-name="path0 fill" class="cls-1" d="M102.14489,68.0686a2.77713,2.77713,0,0,1-5.54749-.03212V59.25512H91.61756v9.76543c0,3.1873,3.40551,5.91476,7.61432,5.91476s7.89285-2.75959,7.89285-5.91476V59.25512h-4.97984ZM29.05332,56.96612a7.34315,7.34315,0,0,0-7.36806-7.26243H12.36809V74.15435H17.53V53.87506h3.0736a3.2207,3.2207,0,1,1-.0964,6.42811H19.29706v5.85065l5.17264,8.00053h6.15794l-7.186-10.2039A7.18311,7.18311,0,0,0,29.05332,56.96612Zm31.175,3.64728a6.8061,6.8061,0,0,0-4.83-1.97875c-4.02667,0-7.31444,3.56179-7.31444,7.97915,0,4.396,3.28777,7.979,7.31444,7.979a6.1644,6.1644,0,0,0,4.83-2.107v1.66853h4.88347V48.52713H60.2283Zm-3.43764,9.80831a3.94682,3.94682,0,1,1,3.58766-3.93614A3.784,3.784,0,0,1,56.79066,70.42171Zm28.88313-9.56232a6.29663,6.29663,0,0,0,.39627-9.12358c-1.1673-1.262-3.2129-2.03226-5.99726-2.03226H71.74093v24.4508h10.7736A7.316,7.316,0,0,0,89.979,67.13789C89.94685,64.35693,88.95081,62.37817,85.67379,60.85939Zm-4.15531,9.05919h-4.6692V54.08865h3.277a2.56879,2.56879,0,0,1,2.6345,2.535,2.65206,2.65206,0,0,1-2.6345,2.63122H78.39134v4.41736h3.19153a3.12416,3.12416,0,0,1-.06439,6.24637Zm-43.587-11.53019a8.17342,8.17342,0,1,0,7.43218,12.36439l-3.96241-1.81827a3.32682,3.32682,0,0,1-3.06289,1.85039,3.25594,3.25594,0,0,1-3.34126-3.20881H45.73855c.03213-.34222.06425-.68445.06425-1.02668C45.8563,61.2656,42.39729,58.38839,37.93147,58.38839ZM34.965,64.78492a2.97182,2.97182,0,0,1,5.94363,0Zm74.45162,9.36943h4.89422V48.52713h-4.89422Zm8.33186-25.62722V74.15435h4.88347V48.52713ZM90.58952,32.01261a1.89377,1.89377,0,0,0-.39627,1.2193,1.04812,1.04812,0,0,0,.94241.66308.90987.90987,0,0,0,.99591-.17112,4.79756,4.79756,0,0,0,.43915-1.54015c0-.17111-.16063-.22461-.38551-.22461A15.92948,15.92948,0,0,1,90.58952,32.01261ZM119.5904,35.66c-.94242.0535-1.43506-.99468-1.992-1.6044-.439-.54547-1.38143-.87694-1.38143-1.71127-.16063-.33161-.16063-.82357-.332-1.26218a1.08387,1.08387,0,0,0-.71753-.88769c-.82467-.107-1.82058.107-2.31323-.66308-.5034-.5456.0535-1.20868.16063-1.7649A5.56593,5.56593,0,0,0,113.122,25.392a7.38133,7.38133,0,0,1-.21426-1.155c.21426-.38511.664-.11776.93179-.0535a5.59489,5.59489,0,0,0,3.26626-.27811,3.91663,3.91663,0,0,0,2.31323-3.52967c-.16063-1.98938-1.5957-3.64728-3.14851-4.92008a2.28281,2.28281,0,0,1-.71753-.87707c-.0535-.77008.83528-.43847,1.27443-.60959a3.85928,3.85928,0,0,0,1.48856-.54554,3.31316,3.31316,0,0,0,1.1673-3.48684c-.06425-.107-.06425-.2674-.22488-.2674a3.28641,3.28641,0,0,1-.66389.54549c-.71753.44922-1.71359.33157-2.48462.71662a4.30185,4.30185,0,0,0-2.60236,2.09638,2.58842,2.58842,0,0,0,.27838,1.55088c1.16743,1.87176,3.65191,3.0377,4.03742,5.29443a2.00547,2.00547,0,0,1-.99591,2.09637A4.18854,4.18854,0,0,1,113.122,21.809c-2.04546-.99469-3.81253-2.70609-6.01877-3.42267-1.38143-.60972-3.095-.50272-4.305-1.43329a10.53182,10.53182,0,0,0-2.81663-1.65791,14.59889,14.59889,0,0,1-2.21685-.55608A11.741,11.741,0,0,0,95.5586,13.1988a15.41781,15.41781,0,0,0-3.53416-1.10168c-.71753-.17112-.94242-.99471-1.55281-1.37976a4.73927,4.73927,0,0,0-3.53416-1.2728,1.67016,1.67016,0,0,0-1.01728.42783,22.21839,22.21839,0,0,0-36.851-.0107,1.68069,1.68069,0,0,0-1.0068-.41713,4.7241,4.7241,0,0,0-3.534,1.2728c-.6104.38505-.83528,1.20864-1.55281,1.37976A15.41582,15.41582,0,0,0,39.4414,13.1988,11.74067,11.74067,0,0,0,37.23531,14.739a14.915,14.915,0,0,1-2.21685.55608A10.53182,10.53182,0,0,0,32.20183,16.953c-1.21018.93057-2.92362.82357-4.30519,1.43329-2.21679.71658-3.98384,2.428-6.02933,3.42267a4.16662,4.16662,0,0,1-3.69475.16036,1.98965,1.98965,0,0,1-.996-2.09637c.38554-2.25673,2.87011-3.42267,4.02672-5.29443a2.439,2.439,0,0,0,.27845-1.55088,4.25161,4.25161,0,0,0-2.59167-2.09638c-.77107-.385-1.767-.2674-2.48457-.71662a3.285,3.285,0,0,1-.664-.54549c-.17136,0-.17136.16044-.2249.2674a3.31331,3.31331,0,0,0,1.15661,3.48684,3.9099,3.9099,0,0,0,1.49931.54554c.43909.17112,1.328-.16049,1.26372.60959a2.10555,2.10555,0,0,1-.71754.87707c-1.54215,1.2728-2.9772,2.9307-3.14856,4.92008a3.94563,3.94563,0,0,0,2.32394,3.52967,5.55962,5.55962,0,0,0,3.25565.27811c.27844-.06426.71754-.33161.94243.0535a7.36,7.36,0,0,1-.22489,1.155,5.74415,5.74415,0,0,0,.11779,2.37449c.1071.55622.664,1.2193.16064,1.7649-.49263.77007-1.4886.55608-2.32394.66308a1.10206,1.10206,0,0,0-.71753.88769c-.16063.43861-.16063.93057-.332,1.26218,0,.83433-.93171,1.1658-1.38151,1.71127-.54617.60972-1.04952,1.6579-1.98123,1.6044a6.12719,6.12719,0,0,0-.61043,2.04288l.10709.107c.78179,0,1.83131.22461,2.37748-.33161.664-.43847.88888-1.65777,1.88486-1.32616a1.55582,1.55582,0,0,0,1.54215.22461,7.18485,7.18485,0,0,0,1.27441-.88783,5.93661,5.93661,0,0,1,4.80849-1.10168c.9853.27811,1.76708-.43847,2.53811-.87708a3.13547,3.13547,0,0,0,1.5422-2.4921l.17139-1.15518a.3863.3863,0,0,0-.22489-.27811h-.16063a6.17625,6.17625,0,0,1-3.2664,3.42267c-1.38156.55622-2.64525-.16036-4.14455.107a7.44049,7.44049,0,0,0-3.53411,1.88251.22272.22272,0,0,1-.21418-.17111v-.107A5.66633,5.66633,0,0,1,24.57677,32.462a4.17921,4.17921,0,0,0,4.36942-1.65777,7.17815,7.17815,0,0,0,1.103-2.6526,15.6636,15.6636,0,0,1,.77116-3.305.391.391,0,0,1,.33188-.11762l.10713.17112a7.23667,7.23667,0,0,0-.10713,3.42267,2.05108,2.05108,0,0,0,1.992,1.262c.82466.0535,1.59569-.10686,2.48461-.10686,1.992-.0535,3.759.71658,5.8045.55608a2.48576,2.48576,0,0,1-.332-1.55077.35563.35563,0,0,1,.332-.107,2.29539,2.29539,0,0,1,.54615,1.04818,3.46623,3.46623,0,0,0,2.09909,1.54016,11.22679,11.22679,0,0,1,1.65995,1.6044.76594.76594,0,0,1,.107.71658c-.38552.99469-1.54206,1.10169-2.431,1.3798a1.00934,1.00934,0,0,1-1.04955-.492c-.38551-.60972-.439-1.60441-1.31717-1.7114H39.10938a.68116.68116,0,0,0-.38551.3316l.05349.26736a6.66105,6.66105,0,0,0,1.15669,1.55091,1.68909,1.68909,0,0,1,.94241.27811,2.10043,2.10043,0,0,0,.94242,1.7114,1.84647,1.84647,0,0,0,1.76708.05336c1.04954-.385,2.099-.60958,3.1485-.94119.43915-.107.6104-.66308,1.10305-.77007.43915-.11762.94242.21385,1.32807-.17112A22.20792,22.20792,0,0,0,85.82381,34.751c0,.01062,0,.02137.01061.02137.38552.385.87817.0535,1.32793.17112.49265.107.664.66308,1.10318.77007,1.04942.33161,2.099.55622,3.14851.94119a1.84721,1.84721,0,0,0,1.76708-.05336,2.12818,2.12818,0,0,0,.94242-1.7114,1.628,1.628,0,0,1,.93166-.27811,6.69164,6.69164,0,0,0,1.1673-1.55091l.05363-.26736a.71661.71661,0,0,0-.38551-.3316H93.95215c-.87816.107-.93166,1.10168-1.32793,1.7114a.99436.99436,0,0,1-1.04955.492c-.87816-.27811-2.03484-.38511-2.431-1.3798a.79985.79985,0,0,1,.11775-.71658,11.69654,11.69654,0,0,1,1.64919-1.6044,3.4892,3.4892,0,0,0,2.10985-1.54016,2.29539,2.29539,0,0,1,.54615-1.04818.364.364,0,0,1,.332.107,2.48677,2.48677,0,0,1-.332,1.55077c2.04546.1605,3.81254-.60958,5.80451-.55608.87816,0,1.65995.16036,2.48447.10686a2.06134,2.06134,0,0,0,1.992-1.262,7.09857,7.09857,0,0,0-.11775-3.42267l.11775-.17112a.40153.40153,0,0,1,.332.11762,16.365,16.365,0,0,1,.77116,3.305,6.83839,6.83839,0,0,0,1.103,2.6526,4.17925,4.17925,0,0,0,4.36945,1.65777,5.67936,5.67936,0,0,1,5.07621,2.25687v.107a.22281.22281,0,0,1-.21426.17111,7.4736,7.4736,0,0,0-3.54478-1.88251c-1.48856-.26736-2.763.44922-4.14456-.107a6.193,6.193,0,0,1-3.25564-3.42267h-.16063a.36283.36283,0,0,0-.22488.27811l.16062,1.15518a3.17307,3.17307,0,0,0,1.55295,2.4921c.771.43861,1.54207,1.15519,2.53812.87708a5.93653,5.93653,0,0,1,4.80845,1.10168,6.48986,6.48986,0,0,0,1.27443.88783,1.556,1.556,0,0,0,1.5422-.22461c.99591-.33161,1.2208.88769,1.88483,1.32616.54614.55622,1.5957.33161,2.36673.33161l.11775-.107A6.38516,6.38516,0,0,0,119.5904,35.66ZM46.2312,29.253a1.18442,1.18442,0,0,1-.02151-.67383c.11789.4171.257.82358.39627,1.2193Zm1.93833,4.19289c-.0535.06425-.107.17125-.16063.11775.0215-.19262.04288-.38511.05363-.57759.0535.107.12851.21386.182.3101A.65377.65377,0,0,1,48.16953,33.4459Zm38.66081.00027c-.03213-.04288-.0535-.107-.08563-.16049.06425-.107.12851-.22461.19276-.33161.01075.20324.03212.40648.0535.60972C86.93747,33.61729,86.884,33.51029,86.83034,33.44617Zm.23577-4.94172c-.02151-.01076-.05363-.01076-.075-.02138a.89024.89024,0,0,0-.38551.385l-1.43506,2.59909a1.321,1.321,0,0,0-.10714.82358c.02138.14974.0535.28886.08563.4386a20.54956,20.54956,0,0,1-35.30879.02137c.03212-.14974.075-.29948.09638-.46a1.40108,1.40108,0,0,0-.10714-.82358l-1.43506-2.59909a.95012.95012,0,0,0-.38551-.385.3161.3161,0,0,1-.09638.02138q-.17663-.54561-.32126-1.12306a2.05619,2.05619,0,0,0,.41764-.43861,7.86552,7.86552,0,0,0,1.15668-4.36386.40352.40352,0,0,1,.27838-.3316c.10713-.0535.21427.107.26776.17124A6.39465,6.39465,0,0,1,49.55109,25.67a9.4826,9.4826,0,0,1-.82466,2.09637.28767.28767,0,0,0,.16063.33161,10.60584,10.60584,0,0,0,2.27048-.107,6.52241,6.52241,0,0,0,2.53811-1.55077c.107-.0535.16063.05336.22488.10686-.22488,1.11244-1.44581,1.77552-1.83133,2.75959-.21413.83419-1.04955,1.44391-1.21018,2.321a.45859.45859,0,0,0,.21427.33161,2.20652,2.20652,0,0,1,.83528.05337,4.08482,4.08482,0,0,0-.0535,1.43329,1.59928,1.59928,0,0,0,1.15655.94119c.99591-.33147,1.992-.77008,2.98787-1.04819a13.47561,13.47561,0,0,1,2.0991.107,4.36192,4.36192,0,0,0,1.5957-1.04819.39958.39958,0,0,1,.439.06412c1.1138,1.10168,2.324,2.31037,3.98393,2.25687a.19139.19139,0,0,0,.16063-.22461v-.107a6.378,6.378,0,0,1-1.92771-2.25673c-.22489-.78084-.88878-1.3263-1.15655-2.04288-.06425-.11775.0535-.17125.16063-.22475l.16063.107a17.09607,17.09607,0,0,1,2.04547,2.6526,2.5962,2.5962,0,0,0,2.43111.77007.233.233,0,0,0,.0535-.33161c-3.41628-2.09637-3.80179-5.85051-4.7442-9.26257-.664-2.26748-1.16744-4.58847-2.93439-6.40673-2.38823-2.642-5.32261-4.29976-8.0321-6.471a20.55275,20.55275,0,0,1,34.27.0107c-2.69874,2.17125-5.62236,3.81834-8.02121,6.46032-1.76708,1.81826-2.25973,4.13925-2.92377,6.40673-.94241,3.41206-1.32792,7.1662-4.75495,9.26257a.2534.2534,0,0,0,.05363.33161,2.57865,2.57865,0,0,0,2.431-.77007,18.52559,18.52559,0,0,1,2.04546-2.6526l.17139-.107c.10713.0535.21413.107.16063.22475a20.98656,20.98656,0,0,0-1.15655,2.04288,6.40766,6.40766,0,0,1-1.93846,2.25673v.107a.19149.19149,0,0,0,.17138.22461c1.66.0535,2.87013-1.15519,3.97318-2.25687a.42134.42134,0,0,1,.44976-.06412,4.36192,4.36192,0,0,0,1.5957,1.04819,13.47561,13.47561,0,0,1,2.0991-.107c.99591.27811,1.992.71672,2.98787,1.04819a1.61847,1.61847,0,0,0,1.15655-.94119,4.08505,4.08505,0,0,0-.0535-1.43329,2.15119,2.15119,0,0,1,.82467-.05337.44314.44314,0,0,0,.22488-.33161c-.17139-.87707-.996-1.48679-1.22094-2.321-.38551-.98407-1.59569-1.64715-1.82058-2.75959a.18958.18958,0,0,1,.22489-.10686A6.44729,6.44729,0,0,0,83.84246,27.991a10.57,10.57,0,0,0,2.27048.107.30048.30048,0,0,0,.16063-.33161A9.48211,9.48211,0,0,1,85.44891,25.67a6.3957,6.3957,0,0,1-.17139-3.25143.30133.30133,0,0,1,.27852-.17124.40352.40352,0,0,1,.27838.3316,7.7777,7.7777,0,0,0,1.15668,4.36386,1.93936,1.93936,0,0,0,.40689.42786C87.30161,27.75574,87.18386,28.13009,87.06611,28.50445Zm1.69207.74884-.407.60958c.16063-.43847.29989-.87707.42839-1.3263A1.158,1.158,0,0,1,88.75818,29.25329Zm29.50428,3.75414a5.394,5.394,0,0,0,.77117,1.2728.86629.86629,0,0,0,.6639.385.88621.88621,0,0,0,.664-.27811.80363.80363,0,0,0,.22488-.60958,7.19492,7.19492,0,0,0-1.38156-1.15518C118.81937,32.29072,118.43385,32.72932,118.26246,33.00743Zm2.87013,4.471c.11789.107,0,.385.22488.385l1.22094-.385a1.29469,1.29469,0,0,0-.27851-.94118,4.26323,4.26323,0,0,0-.27839-1.4333,1.08784,1.08784,0,0,0-.771-.3851,1.12888,1.12888,0,0,0-.61054.88782A9.80582,9.80582,0,0,1,121.13259,37.47842ZM43.86448,33.895a1.02147,1.02147,0,0,0,.93165-.66308,1.82728,1.82728,0,0,0-.38551-1.2193,15.92668,15.92668,0,0,1-1.59569-.0535c-.22489,0-.38552.0535-.38552.22461a4.79758,4.79758,0,0,0,.439,1.54015A.90584.90584,0,0,0,43.86448,33.895Zm-28.562.77021a.88468.88468,0,0,0,.664-.385,5.77722,5.77722,0,0,0,.77107-1.2728c-.17134-.27811-.55688-.71671-.94242-.3851a7.197,7.197,0,0,0-1.38151,1.15518.80353.80353,0,0,0,.22489.60958A.88607.88607,0,0,0,15.30247,34.6652Zm-1.66,3.19819c.21419,0,.1071-.278.21419-.385A10.69526,10.69526,0,0,1,14.36,35.60666a1.12866,1.12866,0,0,0-.61042-.88782,1.07143,1.07143,0,0,0-.77108.3851,4.016,4.016,0,0,0-.27845,1.4333,1.29477,1.29477,0,0,0-.27844.94118Z"/></g></g></g></svg>