<svg id="Layer_1" data-name="Layer 1" xmlns="http://www.w3.org/2000/svg" viewBox="0 0 135 75"><defs><style>.cls-1{fill:#fff;}</style></defs><title>riot-games</title><path class="cls-1" d="M26.19913,40.31352a22.48585,22.48585,0,0,1-1.63227-1.58664,12.90344,12.90344,0,0,1-3.79032-8.72136A12.884,12.884,0,0,1,24.5813,21.2843a27.82315,27.82315,0,0,1,6.66315-5.1427c-.84039.1409-1.638.28032-1.638.28032l-.15639-1.71944a27.88035,27.88035,0,0,0-5.74981,4.65508,14.03234,14.03234,0,0,0-4.07741,9.48282,14.01747,14.01747,0,0,0,4.09184,9.497,23.70188,23.70188,0,0,0,2.11862,2.03C25.95614,40.34978,26.07894,40.33218,26.19913,40.31352Z"/><path class="cls-1" d="M79.87078,6.53965Q77.54,6.24708,75.14036,6.06513l.08344.05612c0,.03478-.57423,1.57157-.80772,2.19488,1.06058.07273,2.10869.168,3.15019.27384L77.33144,6.7016C77.5055,6.68041,78.58023,6.61457,79.87078,6.53965Z"/><path class="cls-1" d="M111.27085,19.35756a24.41844,24.41844,0,0,0-2.85431-2.62314l.03859,1.77669s-.46044-.02007-1.12071-.03887a23.8169,23.8169,0,0,1,3.11294,2.81206,12.75254,12.75254,0,0,1,3.776,8.72122,12.81115,12.81115,0,0,1-3.79032,8.72136,26.61152,26.61152,0,0,1-5.80086,4.65212l.03964.13555a28.50821,28.50821,0,0,0,6.61351-5.17713,13.95854,13.95854,0,0,0,4.09184-9.48275A13.98376,13.98376,0,0,0,111.27085,19.35756Z"/><path class="cls-1" d="M29.776,74.99415a5.37543,5.37543,0,0,0,3.38495-1.06691,3.08756,3.08756,0,0,0,1.15684-2.46619v-.37517H29.4474V72.341h3.14216a3.08636,3.08636,0,0,1-2.79938,1.37,3.515,3.515,0,0,1-1.89957-.534,1.92205,1.92205,0,0,1-.94263-1.6584c0-1.23984,1.17119-2.17719,2.8422-2.17719a2.84748,2.84748,0,0,1,2.14241.85059l1.62819-.57683a4.57048,4.57048,0,0,0-3.7706-1.54291,5.13939,5.13939,0,0,0-3.27067,1.09621,3.07,3.07,0,0,0-.0143,4.74422A5.0241,5.0241,0,0,0,29.776,74.99415Z"/><path class="cls-1" d="M48.843,68.28843h-1.9423l-3.42783,6.5181h1.5853l.74273-1.3987h4.1419l.74273,1.3987h1.58537Zm-2.39936,3.85025,1.41392-2.66785,1.42828,2.66785Z"/><polygon class="cls-1" points="69.924 70.178 69.924 74.807 71.509 74.807 71.509 68.288 69.667 68.288 66.825 71.749 63.983 68.288 62.14 68.288 62.14 74.807 63.711 74.807 63.711 70.178 63.754 70.178 66.825 73.913 69.896 70.178 69.924 70.178"/><polygon class="cls-1" points="82.464 74.807 82.464 68.288 89.463 68.288 89.463 69.543 84.035 69.543 84.035 70.87 87.806 70.87 87.806 72.125 84.035 72.125 84.035 73.552 89.72 73.552 89.72 74.807 82.464 74.807"/><path class="cls-1" d="M101.30285,70.077c0-.41854.69982-.67823,2.04234-.67823a5.91834,5.91834,0,0,1,2.828.707l.88555-1.0382a6.7167,6.7167,0,0,0-3.79914-.952c-2.32809,0-3.59931.8078-3.59931,2.091,0,1.31251,1.24261,1.8026,3.75633,1.91808l.22451.009c1.238.05013,1.98937.08055,1.98937.62528,0,.53345-.72842.90862-2.02814.90862a6.31735,6.31735,0,0,1-3.41358-1.00945L99.33182,73.725a6.99716,6.99716,0,0,0,4.19911,1.22577c2.45661,0,3.77052-.836,3.77052-2.24931,0-1.2838-.97115-1.77387-2.9993-1.96146-.36721-.03154-.71135-.04563-1.0301-.05915a7.15482,7.15482,0,0,1-1.4122-.14251C101.48848,70.45159,101.30285,70.30739,101.30285,70.077Z"/><path id="path5_fill" data-name="path5 fill" class="cls-1" d="M70.31943,16.133a14.39657,14.39657,0,0,0,2.31829-1.624c.24631-.23152-.4347-1.68544-.40574-1.62347-1.217-2.22677-.55053-3.68069-.36225-4.00516a.127.127,0,0,0,0-.10816s-2.47761-2.19579-2.521-2.24254c-.0435-.031-.08687.01577-.08687.01577L67.81286,8.308c-.02884.04675-.08687.01577-.08687.01577L65.72654,7.10194c-.058-.04619-.087,0-.087,0S63.785,8.81836,63.72705,8.88032s-.1159-.01577-.1159-.01577L59.96,5.78717c-.03766-.02648-.05357-.00676-.0666.009l-.00585.00676c-1.05762,1.22182-2.85423,3.897-2.85423,3.897a5.72768,5.72768,0,0,1-1.61333.95482l-.00944.00395c-.029,0-.029.031-.01451.04619a34.43457,34.43457,0,0,1,3.9989,6.29389c1.13014,2.48985,1.76767,2.48985,1.76767,2.48985a3.998,3.998,0,0,0,2.41964-.51038c-1.65177-1.50011-2.11537-6.58794-2.11537-6.58794a27.29839,27.29839,0,0,0,1.39088,3.81984c.26969.5205,1.15395,1.819,1.48271,2.30168l.09661.142c.0145.01511.07246.01511.1014.01511a8.992,8.992,0,0,0,2.34719-.80433c.0381-.04061-.002-.0811-.0319-.11156l-.01155-.01188a6.50891,6.50891,0,0,1-1.36195-2.27349,15.47561,15.47561,0,0,1-.50713-3.09258.05288.05288,0,0,1,.01332.0169l.0012.01409a12.55692,12.55692,0,0,0,2.72384,5.04112.16665.16665,0,0,0,.1449.01569,12.5547,12.5547,0,0,0,1.68066-.94351.09837.09837,0,0,0,.01453-.15434,5.58677,5.58677,0,0,1-.89836-1.80936,11.4709,11.4709,0,0,1-.31864-2.923A13.93722,13.93722,0,0,0,69.03,13.92141a.74594.74594,0,0,0,.05491.15548c.0112.02535.02239.05126.03208.0766a15.15,15.15,0,0,0,1.11559,1.96372A.19939.19939,0,0,0,70.31943,16.133ZM62.08986,19.999A12.67846,12.67846,0,0,0,67.016,18.2668C64.6254,22.597,62.08986,19.999,62.08986,19.999Z"/><path class="cls-1" d="M104.74318,9.20025A17.21452,17.21452,0,0,0,103.251,5.77418l-4.46158,2.2555c-1.39871,4.16232-3.66323,3.90545-5.54469,3.692-.28138-.03155-.55437-.06253-.81448-.07774-1.98456-.116-8.64806-2.66053-8.64806-2.66053-.13034-.04337-.15942-.05746-.15942-.05746l-4.7657.54923s.81117,3.33932.56486,4.64058c-.24616,1.30125-1.20225,1.63361-4.1719,2.15411-2.74608.48107-2.8041.51768-4.1833,1.37786l-.36524.22709a31.53051,31.53051,0,0,0-4.70789,4.5684c-.11583.04337-2.44809.49121-2.44809.49121-2.46259.43375-3.47656-.10083-3.47656-.10083a13.14438,13.14438,0,0,1-3.05654-2.15411c-.11583-.07267-.08682-.15942-.08682-.15942a24.21491,24.21491,0,0,0,.94158-2.443c.13041-.5493.11583-.76618-1.10092-2.77552a19.32687,19.32687,0,0,0-2.04969-2.96584l-.02169-.027c-1.159-1.51813-5.128-3.83109-5.128-3.83109a.25513.25513,0,0,0-.116-.04338L47.5823,10.0824A33.00977,33.00977,0,0,0,41.45486,12.468a25.747,25.747,0,0,0-2.39021-6.477c-6.3013,4.84281-9.38677,4.106-9.38677,4.106l.39115,4.61128a15.13647,15.13647,0,0,0,7.41672-2.50054,11.86118,11.86118,0,0,1-3.607,2.92021,16.71508,16.71508,0,0,1,1.86865,5.66693c.20279,1.82176-1.23134,7.98046-1.23134,7.98046.34771.62141,1.47757,6.2889,1.47757,6.2889a15.39445,15.39445,0,0,1-.28968,5.99929l-.0145-2.24086-1.23127-.11548a5.69978,5.69978,0,0,1-1.40511,1.50341,21.20892,21.20892,0,0,1-4.20091,1.40209c.01866.04176.11386.37742.246.84328.27834.98073.72061,2.53949.95636,3.14723.34764.89631,2.04251,4.395,2.04251,4.395,1.73831-.983,6.4317-4.72781,6.4317-4.72781a6.65046,6.65046,0,0,1,1.8252-1.12726,3.44241,3.44241,0,0,1,.82716-.13288c.28088-.026.596-.05527.911-.11329a24.53632,24.53632,0,0,0,3.59254-2.024,49.89046,49.89046,0,0,1-2.27424-5.14643c-.34771-.9689-.92707-4.98757-.92707-4.98757a20.49242,20.49242,0,0,0-2.99859.289c2.63645-2.4864,6.60555-1.95188,6.60555-1.95188,3.09984-.07211,3.9401,5.95647,3.9401,5.95647-.14478.11548-2.69426,5.65285-2.69426,5.65285a6.28006,6.28006,0,0,0-.623,4.45243c.18829.28961,1.072,4.94413,1.072,4.94413.24624.53522.60845,6.60717.60845,6.60717l3.491-.01465c5.86522-3.72744,5.89465-3.73476,6.5481-3.89242.04872-.0119.10069-.02422.15885-.0395.85462-.21688,4.43264.8963,4.43264.8963L66.1096,47.309l-7.54706-3.065-.07245,2.3857c-1.37618-.8242-1.08643-5.32-.956-6.3903.13034-1.06966.85462-6.75124.85462-6.75124a3.07636,3.07636,0,0,0-.37862-2.39584.33569.33569,0,0,1-.04147-.076c0-.0581-3.40418-4.91555-3.40418-4.91555a10.68089,10.68089,0,0,1-9.47373,2.76136A12.71887,12.71887,0,0,0,55.506,22.97776l2.506,1.08445c.01451.13006-.73885,2.87677-.73885,2.87677A7.5972,7.5972,0,0,1,60.63,30.73234l.00387.009c-.0145-.02873-1.83957-1.76374-1.83957-1.76374l-.18842,1.28661a2.57988,2.57988,0,0,1,.76779.8242c.79667.79476.46354,2.67454.46354,2.67454.07246.0721-1.12994,8.64517-1.12994,8.64517l7.85125,3.354a12.32809,12.32809,0,0,0-.11576-5.27656c-.3332-1.30118-2.18741-7.40186-2.18741-7.40186-.89807-3.181.59394-7.19971.59394-7.19971l1.34716.2168a27.73332,27.73332,0,0,0-.18828,6.33221c.97058,8.24015,8.67692,12.25946,8.67692,12.25946A35.96757,35.96757,0,0,0,84.55,36.45166c.26074,2.44372-.7678,15.81621-.7678,15.81621,1.05748.1735,2.39021.24561,2.39021.24561.26074-.01408,4.47609-1.70571,4.47609-1.70571a.27827.27827,0,0,1,.2318-.02873l7.24294,1.14176c.31848.02873,4.7512,0,4.7512,0a71.80758,71.80758,0,0,1-1.85415-11.53665l-6.69237-7.89371v.01464a11.26317,11.26317,0,0,0,.69527,3.51282,9.28937,9.28937,0,0,1-.7942-8.84007l.09893-.2963a50.1568,50.1568,0,0,1,2.88261-5.79763,19.91161,19.91161,0,0,0-1.14444-6.25953c.97059.50585,1.26027,2.35634,1.26027,2.35634,2.91163-2.21213,7.64846-1.69163,7.64846-1.69163A46.53769,46.53769,0,0,0,104.74318,9.20025ZM48.01689,24.29366a4.48207,4.48207,0,0,0,.37665-2.024.70631.70631,0,0,0-.04345-.10147,6.64413,6.64413,0,0,1-8.43076.49185,4.4853,4.4853,0,0,0,1.73832.44783l.02894-5.103a6.87806,6.87806,0,0,0-2.21629,1.73445S40.84648,16.458,46.351,14.63622a36.20021,36.20021,0,0,0,4.34576,2.55913S50.36359,22.52993,48.01689,24.29366Zm26.97243,9.20912A4.93825,4.93825,0,0,1,70.89,30.01862a3.04982,3.04982,0,0,0,.56493,2.06736,2.39974,2.39974,0,0,1-1.203-1.93041,5.37889,5.37889,0,0,0,.97115,2.98613,3.93513,3.93513,0,0,1-1.608-3.23856c.02908-2.57315.1014-3.51282,1.82521-5.62356,1.62135-1.98512,2.5892-2.16763,3.68681-2.37436l.21-.03993a8.39017,8.39017,0,0,1,2.73777.08661c3.27384.43382,3.94017,2.32768,3.94017,2.32768A8.55022,8.55022,0,0,0,79.48,23.20929C84.21682,28.16813,78.97293,33.90773,74.98932,33.50278ZM89.31579,19.10329s-.13048,3.15174-.15928,3.51283c-.007.0902-.00986.22877-.01317.39882a8.38282,8.38282,0,0,1-.2042,1.98681s-2.40471,6.47648-3.56359,7.24308l-.57937-4.29407-1.492,3.03619a9.48437,9.48437,0,0,1,.79673-3.15166s2.08595-4.14937,2.1294-4.58263c0,0,.46354-.91088.11583-1.12768,0,0-4.18626-4.14937-8.98119-4.77077l10.15457-.4484s4.21542,2.99239,4.57756,3.296A6.64984,6.64984,0,0,1,89.31579,19.10329Z"/><path class="cls-1" d="M107.05734,45.59655v-.01464c-.01451-.05866-1.91794-7.0241-1.91794-7.0241s-5.6375-5.23515-6.37854-8.43181c-.21793-3.78335,4.50425-6.32024,4.50425-6.32024l-.62478-3.09414a5.44668,5.44668,0,0,1,1.55467-.39593c.4358-.04408,1.10424-.05873,1.96153-.05873,1.51109,0,3.10935.07337,3.12393.07337l1.235.05859-.02908-1.2464-.17435-8.06524V10.9306l-.04358-.1466a67.09865,67.09865,0,0,0-2.83326-8.22656L106.883,1.44293l-1.06064.61591a35.53494,35.53494,0,0,1-7.55551,2.97683l-.90088.24927.05816.95319a6.44626,6.44626,0,0,1-.15991,1.99427C96.94467,9.22961,85.873,5.57821,85.873,5.57821l-8.80515.57191L69.64313,1.0177l-.61028.43995-2.73151,2.009L62.32012.63641,61.43375.00585l-.68281.83588a35.93275,35.93275,0,0,1-2.81889,3.07943,19.22718,19.22718,0,0,1-2.09228,1.55439L52.3963,3.8625,45.10224,7.46989,42.4289,1.41364s-7.541,6.32023-12.26319,6.1149A20.93749,20.93749,0,0,1,27.8845,7.0593l.78462,11.438,4.05382-.55726a41.64162,41.64162,0,0,1,.39227,4.15,35.27909,35.27909,0,0,1-1.01706,7.93328l-.15984.55719.33419.4546c.0145.01464,1.43849,2.11165,1.65642,6.61351a23.56289,23.56289,0,0,1-8.32556,2.50758l-1.36582.1759.40685,1.31984a74.86211,74.86211,0,0,0,6.04435,14.3121l.61028,1.02657,1.00256-.64527c.66837-.42523,6.07343-4.3259,8.253-6.11491,1.08973.41066,3.32728,1.23183,5.05623,1.701a30.83542,30.83542,0,0,1,.7992,9.41438l-.05809.93848.8863.264a27.64936,27.64936,0,0,0,5.23072.79188l1.35125.088.40692.02929.33412-.23462c.218-.16132,5.04186-3.622,6.34952-4.60452h.13083c.61014,0,2.17939.176,5.84086,1.40779l1.177.39586.30518-1.2171L71.561,46.60841a36.06363,36.06363,0,0,0,4.27181,2.97682l.50853.29328.53762-.24934a25.59466,25.59466,0,0,0,5.4197-3.56331,74.8979,74.8979,0,0,1-.959,10.55812l-.20342,1.26118,7.0469.32257.21794-.11731a24.87823,24.87823,0,0,1,4.33-2.0237,13.50309,13.50309,0,0,1,5.98627,1.02657,10.77588,10.77588,0,0,0,3.0076.39593c.27609,0,9.03758-.30806,9.03758-.30806Zm-5.3726,9.63435a10.06446,10.06446,0,0,1-3.40692-.31919,21.205,21.205,0,0,0-6.36614-1.0591c-.96721.058-4.77838,2.14721-4.77838,2.14721-.895.07246-5.32683-.24666-5.32683-.24666a62.24819,62.24819,0,0,0,.924-13.21681A26.16405,26.16405,0,0,1,75.758,47.58512,39.24943,39.24943,0,0,1,70.27228,43.581L66.6489,57.81327c-6.06308-2.00209-6.8282-1.33463-6.8282-1.33463-.9094.71083-6.45275,4.67149-6.45275,4.67149l-1.34266-.0871a26.4436,26.4436,0,0,1-4.95138-.73985A37.341,37.341,0,0,0,46.40983,49.979a62.60092,62.60092,0,0,1-6.16413-2.0456c-1.5013,1.45074-8.9647,6.398-8.9647,6.398-3.39242-5.62912-5.8898-13.8987-5.8898-13.8987,6.25074-.81251,9.29664-2.98866,9.29664-2.98866-.101-5.41154-1.891-7.86343-1.891-7.86343a35.90931,35.90931,0,0,0,1.05382-8.1679,51.81589,51.81589,0,0,0-.67851-5.55652c0-.058-3.56563.5657-3.56563.5657l-.75069-8.255c4.70613,1.56685,12.7468-5.2084,12.7468-5.2084L43.999,8.64566a67.95935,67.95935,0,0,1,6.8282-3.40938c.77956-.3482,1.21261-.52226,1.21261-.52226l3.24806,1.59587a18.5116,18.5116,0,0,0,2.78608-1.97308,39.20482,39.20482,0,0,0,2.93056-3.1773l4.63382,3.29334L69.0308,1.98646c.18766.1016,6.193,4.13479,6.193,4.13479,0,.04351-.90947,2.46639-.90947,2.46639l3.2625.087L77.33144,6.7016c.47635-.058,7.67979-.44974,7.67979-.44974.01443,0,.029.01451.04337.01451,1.31372.40622,6.01971,1.76993,8.9069,2.42281,2.916.66739,3.39249-.029,3.39249-.029A7.58016,7.58016,0,0,0,97.77267,5.657a36.74129,36.74129,0,0,0,7.78083-3.06119,66.91994,66.91994,0,0,1,2.72834,7.93589l.17329,7.9794s-3.62344-.15956-5.22579,0a6.40113,6.40113,0,0,0-2.74284.914l.63521,3.14821c-4.79267,3.00324-4.33076,6.993-4.33076,6.993.85166,3.85912,6.45283,8.79184,6.45283,8.79184.34644,1.45074,1.83337,6.63013,1.87668,6.60112.3032,1.17514,3.20476,10.054,3.20476,10.054Z"/></svg>