<svg id="Layer_1" data-name="Layer 1" xmlns="http://www.w3.org/2000/svg" viewBox="0 0 135 75"><defs><style>.cls-1{fill:#fff;}</style></defs><title>adidas</title><path id="path0_fill" data-name="path0 fill" class="cls-1" d="M120.88052,52.11864a3.09121,3.09121,0,0,1-1.57478-.41959,2.78165,2.78165,0,0,1-1.17336-1.16939,3.12505,3.12505,0,0,1-.42036-1.571,3.15736,3.15736,0,0,1,.42036-1.60761,2.94088,2.94088,0,0,1,1.19089-1.16939,3.49455,3.49455,0,0,1,1.55725-.419h.01753a3.27106,3.27106,0,0,1,1.55849.419,2.83693,2.83693,0,0,1,1.19088,1.16939,3.16091,3.16091,0,0,1,.42037,1.60761,3.12009,3.12009,0,0,1-.42037,1.571,2.79235,2.79235,0,0,1-1.17326,1.16939,3.09271,3.09271,0,0,1-1.57611.41959Zm-1.29958-5.48013a2.56266,2.56266,0,0,0-.98909.98691,2.575,2.575,0,0,0,.00132,2.64789,2.47434,2.47434,0,0,0,.9696.96829,2.64074,2.64074,0,0,0,1.319.347h.01762a2.64082,2.64082,0,0,0,1.31906-.347,2.46579,2.46579,0,0,0,.97085-.96829,2.69152,2.69152,0,0,0,0-2.64789,2.57165,2.57165,0,0,0-.98909-.98691,2.83309,2.83309,0,0,0-1.30152-.34634h-.01754A2.82392,2.82392,0,0,0,119.58094,46.63851Z"/><polygon class="cls-1" points="108.236 48.812 85.782 48.812 72.436 26.645 62.324 9.871 72.436 3.816 78.803 0 94.259 25.611 108.236 48.812"/><polygon class="cls-1" points="43.02 48.812 47.617 48.812 43.02 41.179 39.139 34.752 22.644 44.623 25.163 48.812 43.02 48.812"/><path class="cls-1" d="M122.05332,49.881a4.19325,4.19325,0,0,0-.47708-.62745.84249.84249,0,0,0-.2728-.16945.99628.99628,0,0,0,.664-.2887.83124.83124,0,0,0,.25635-.61077.74752.74752,0,0,0-.15354-.45807.73437.73437,0,0,0-.40865-.30531,1.82763,1.82763,0,0,0-.61325-.085.56772.56772,0,0,1-.0741-.00691l-.00621-.00062-.0055-.00062a.76068.76068,0,0,0-.101-.00861h-1.1067v3.18852h.51036l-.00062-1.3563h.30593a.56137.56137,0,0,1,.4088.11863.22089.22089,0,0,1,.06844.05082,2.96722,2.96722,0,0,1,.47708.67912l.28971.50835h.61317Zm-1.00622-1.17064H120.264l.00062-.95021h.78309a2.55679,2.55679,0,0,1,.32353.05144.3751.3751,0,0,1,.22082.16883.41214.41214,0,0,1,.0682.25519.42207.42207,0,0,1-.15355.3382A.73863.73863,0,0,1,121.0471,48.71032Z"/><path class="cls-1" d="M77.93507,48.81281v7.64885a10.02056,10.02056,0,0,0-5.44855-1.61141h-.05074a10.07489,10.07489,0,0,0,0,20.14975h.05074a10.01468,10.01468,0,0,0,5.44855-1.61141v1.05154h4.64669V48.81281Zm0,17.1642a5.57768,5.57768,0,0,1-5.44855,4.49377h-.05074a5.53759,5.53759,0,0,1,0-11.07509h.05074a5.56448,5.56448,0,0,1,5.44855,4.4777Z"/><path class="cls-1" d="M99.758,55.3586v1.10306a9.9759,9.9759,0,0,0-5.44715-1.61141h-.05206a10.07489,10.07489,0,0,0,0,20.14975h.05206A9.96611,9.96611,0,0,0,99.758,73.38859v1.05154h4.648V55.3586Zm0,10.61841a5.57688,5.57688,0,0,1-5.44723,4.49377h-.052a5.53759,5.53759,0,0,1,0-11.07509h.052a5.56369,5.56369,0,0,1,5.44723,4.4777Z"/><path class="cls-1" d="M120.39813,63.45127l-.02211-.008-.1228-.04538a49.42536,49.42536,0,0,0-5.07293-1.30525c-2.0597-.45865-3.098-1.05153-3.098-1.79822a1.57791,1.57791,0,0,1,.54419-1.255,4.0121,4.0121,0,0,1,2.55381-.61068,3.72738,3.72738,0,0,1,2.6728.7969,3.305,3.305,0,0,1,.71479,1.71318h4.9369a5.4586,5.4586,0,0,0-2.928-5.18911,1.88923,1.88923,0,0,0-.32351-.16945,12.79991,12.79991,0,0,0-5.362-.95021c-2.70737,0-4.7494.7125-6.11072,2.15377a5.90858,5.90858,0,0,0-1.61694,4.22326,4.72736,4.72736,0,0,0,3.09788,4.5286,33.308,33.308,0,0,0,5.72008,1.54361c2.02576.44135,3.046,1.06894,3.046,1.86648a1.58446,1.58446,0,0,1-.64589,1.2544,3.88641,3.88641,0,0,1-2.55382.71327,5.33138,5.33138,0,0,1-3.217-.74619,2.43259,2.43259,0,0,1-.95427-2.05195H106.482a5.65847,5.65847,0,0,0,2.9789,5.24,12.56266,12.56266,0,0,0,6.2316,1.35737,11.58233,11.58233,0,0,0,4.56141-.84788c.27267-.11847.51164-.23771.76677-.3736a5.671,5.671,0,0,0,3.04716-5.34178,4.75492,4.75492,0,0,0-3.13309-4.47953c-.13577-.06827-.31563-.13589-.52169-.21293Z"/><path class="cls-1" d="M26.491,55.3586v1.10306a10.07615,10.07615,0,0,0-5.4643-1.61141h-.05136a10.07493,10.07493,0,0,0,0,20.14975h.05136a10.0663,10.0663,0,0,0,5.4643-1.61141v1.05154H31.1382V55.3586Zm0,10.61841a5.58182,5.58182,0,0,1-5.4643,4.49377H20.9753a5.53769,5.53769,0,0,1,0-11.07509h.05144a5.56775,5.56775,0,0,1,5.4643,4.4777Z"/><rect class="cls-1" x="55.49809" y="48.91398" width="5.05602" height="4.42741"/><rect class="cls-1" x="55.49809" y="54.8503" width="5.05602" height="19.58924"/><path class="cls-1" d="M48.53609,48.81281v7.64885a10.07778,10.07778,0,0,0-5.46485-1.61141h-.05089a10.07489,10.07489,0,0,0,0,20.14975h.05089a10.07011,10.07011,0,0,0,5.46485-1.61141v1.05154h4.64715V48.81281Zm0,17.1642a5.582,5.582,0,0,1-5.46485,4.49377h-.05089a5.53759,5.53759,0,0,1,0-11.07509h.05089a5.56872,5.56872,0,0,1,5.46485,4.4777Z"/><polygon class="cls-1" points="72.436 39.688 77.917 48.812 55.481 48.812 43.02 28.154 42.476 27.255 43.02 26.934 58.971 17.368 72.436 39.688"/></svg>