<svg width="299" height="291" viewBox="0 0 299 291" version="1.1" xmlns="http://www.w3.org/2000/svg" xmlns:xlink="http://www.w3.org/1999/xlink">
<title>Group 2 Copy 3.1</title>
<desc>Created using Figma</desc>
<g id="Canvas" transform="translate(-702 -655)">
<g id="Group 2 Copy 3.1">
<g id="Page 1">
<g id="Fill 1">
<use xlink:href="#path0_fill" transform="translate(816.169 789.694)" fill="#F9AE41"/>
</g>
<g id="Group 14">
<g id="Group 5">
<mask id="mask0_outline" mask-type="alpha">
<g id="Clip 4">
<use xlink:href="#path1_fill" transform="translate(816.172 850.504)" fill="#FFFFFF"/>
</g>
</mask>
<g id="Fill 3" mask="url(#mask0_outline)">
<use xlink:href="#path2_fill" transform="translate(812.893 850.504)" fill="#EB8523"/>
</g>
</g>
<g id="Group 8">
<mask id="mask1_outline" mask-type="alpha">
<g id="Clip 7">
<use xlink:href="#path3_fill" transform="translate(850.524 789.864)" fill="#FFFFFF"/>
</g>
</mask>
<g id="Fill 6" mask="url(#mask1_outline)">
<use xlink:href="#path4_fill" transform="translate(848.886 783.306)" fill="#EB8523"/>
</g>
</g>
<g id="Fill 9">
<use xlink:href="#path5_fill" transform="translate(817.799 791.502)" fill="#EB8523"/>
</g>
<g id="Group 13">
<mask id="mask2_outline" mask-type="alpha">
<g id="Clip 12">
<use xlink:href="#path6_fill" transform="translate(879.973 832.474)" fill="#FFFFFF"/>
</g>
</mask>
<g id="Fill 11" mask="url(#mask2_outline)">
<use xlink:href="#path7_fill" transform="translate(879.973 832.474)" fill="#EB8523"/>
</g>
</g>
</g>
<g id="Group 46">
<g id="Fill 15">
<use xlink:href="#path8_fill" transform="translate(829.416 858.379)" fill="#EB8523"/>
</g>
<g id="Fill 17">
<use xlink:href="#path9_fill" transform="translate(834.352 720.66)" fill="#EB8523"/>
</g>
<g id="Fill 19">
<use xlink:href="#path10_fill" transform="translate(849.122 709.184)" fill="#333333"/>
</g>
<g id="Fill 21">
<use xlink:href="#path11_fill" transform="translate(829.417 809.198)" fill="#333333"/>
</g>
<g id="Fill 23">
<use xlink:href="#path12_fill" transform="translate(813 819.034)" fill="#333333"/>
</g>
<g id="Fill 25">
<use xlink:href="#path13_fill" transform="translate(817.923 768.21)" fill="#333333"/>
</g>
<g id="Fill 27">
<use xlink:href="#path14_fill" transform="translate(832.706 674.752)" fill="#333333"/>
</g>
<g id="Group 31">
<mask id="mask3_outline" mask-type="alpha">
<g id="Clip 30">
<use xlink:href="#path15_fill" transform="translate(888.522 799.36)" fill="#FFFFFF"/>
</g>
</mask>
<g id="Fill 29" mask="url(#mask3_outline)">
<use xlink:href="#path16_fill" transform="translate(888.522 799.36)" fill="#333333"/>
</g>
</g>
<g id="Stroke 32">
<use xlink:href="#path17_stroke" transform="translate(845.844 655.077)" fill="#333333"/>
</g>
<g id="Stroke 34">
<use xlink:href="#path17_stroke" transform="translate(870.461 687.868)" fill="#333333"/>
</g>
<mask id="mask4_outline" mask-type="alpha">
<g id="Clip 37">
<use xlink:href="#path18_fill" transform="translate(813 655)" fill="#FFFFFF"/>
</g>
</mask>
<g id="Fill 36" mask="url(#mask4_outline)">
<use xlink:href="#path19_fill" transform="translate(839.262 728.865)" fill="#333333"/>
</g>
<g id="Fill 38" mask="url(#mask4_outline)">
<use xlink:href="#path19_fill" transform="translate(845.856 728.865)" fill="#333333"/>
</g>
<g id="Fill 39" mask="url(#mask4_outline)">
<use xlink:href="#path20_fill" transform="translate(895.09 841.974)" fill="#333333"/>
</g>
<g id="Fill 40" mask="url(#mask4_outline)">
<use xlink:href="#path21_fill" transform="translate(873.764 810.844)" fill="#333333"/>
</g>
<g id="Fill 41" mask="url(#mask4_outline)">
<use xlink:href="#path22_fill" transform="translate(879.759 810.844)" fill="#333333"/>
</g>
<g id="Fill 42" mask="url(#mask4_outline)">
<use xlink:href="#path19_fill" transform="translate(837.63 869.875)" fill="#333333"/>
</g>
<g id="Fill 43" mask="url(#mask4_outline)">
<use xlink:href="#path23_fill" transform="translate(844.173 869.875)" fill="#333333"/>
</g>
<g id="Fill 44" mask="url(#mask4_outline)">
<use xlink:href="#path24_fill" transform="translate(819.569 655)" fill="#F2F2F2"/>
</g>
<g id="Fill 45" mask="url(#mask4_outline)">
<use xlink:href="#path25_fill" transform="translate(849.122 686.622)" fill="#F2F2F2"/>
</g>
</g>
</g>
<g id="Page 1">
<g id="Fill 1">
<use xlink:href="#path26_fill" transform="translate(766.412 835.363)" fill="#222B70"/>
</g>
<g id="Fill 2">
<use xlink:href="#path26_fill" transform="translate(721.085 862.36)" fill="#222B70"/>
</g>
<g id="Fill 3">
<use xlink:href="#path26_fill" transform="translate(969.987 810.748)" fill="#222B70"/>
</g>
<g id="Fill 4">
<use xlink:href="#path26_fill" transform="translate(932.612 739.287)" fill="#222B70"/>
</g>
<g id="Fill 5">
<use xlink:href="#path27_fill" transform="translate(976.348 706.732)" fill="#222B70"/>
</g>
<g id="Fill 6">
<use xlink:href="#path28_fill" transform="translate(936.588 900.473)" fill="#222B70"/>
</g>
<g id="Fill 7">
<use xlink:href="#path29_fill" transform="translate(953.287 778.194)" fill="#222B70"/>
</g>
<g id="Fill 8">
<use xlink:href="#path29_fill" transform="translate(913.527 775.018)" fill="#222B70"/>
</g>
<g id="Fill 9">
<use xlink:href="#path30_fill" transform="translate(702 898.885)" fill="#222B70"/>
</g>
<g id="Fill 10">
<use xlink:href="#path31_fill" transform="translate(775.955 790.104)" fill="#222B70"/>
</g>
</g>
</g>
</g>
<defs>
<path id="path0_fill" fill-rule="evenodd" d="M 21.3322 130.993L 64.0089 130.993L 64.0089 91.7014C 64.0089 80.1977 86.9846 70.4131 86.9846 70.4131L 86.9846 58.9529C 86.9846 50.7941 91.9077 39.304 91.9077 39.304L 72.2078 39.304L 72.2078 9.82569L 78.7745 0L 34.4654 0L 36.0977 6.54921L 6.56662 6.54921C 6.56662 6.54921 16.4103 12.6503 16.4103 24.5611L 16.4103 62.2231L 0 62.2231L 0 85.146C 0 85.146 21.3322 93.26 21.3322 103.158L 21.3322 130.993Z"/>
<path id="path1_fill" fill-rule="evenodd" d="M 16.3571 8.85419e-15L 16.3571 1.6445L 0 1.6445L 0 24.5905C 0 24.5905 12.0356 29.1886 17.9968 35.6849L 17.9968 0L 16.3571 0L 16.3571 8.85419e-15Z"/>
<path id="path2_fill" fill-rule="evenodd" d="M 21.2754 42.6172L 21.2754 21.3073L 16.3571 8.19571L 19.636 0L 0 3.27853L 0 27.5815L 21.2754 42.6172Z"/>
<path id="path3_fill" fill-rule="evenodd" d="M 1.22144 4.91693L 0 0L 44.1654 0L 40.8935 4.91693L 1.22144 4.91693Z"/>
<path id="path4_fill" fill-rule="evenodd" d="M 1.63943 0L 50.7107 0L 48.4701 11.2026L 0 11.4742L 1.63943 0Z"/>
<path id="path5_fill" fill-rule="evenodd" d="M 37.6325 54.0889L 37.6325 0L 0 4.91842C 0 4.91842 14.7301 11.7284 14.7301 24.5859C 14.7301 37.4445 16.3695 59.0061 16.3695 59.0061L 37.6325 54.0889Z"/>
<path id="path6_fill" fill-rule="evenodd" d="M 26.5424 0C 25.0888 4.01029 22.9023 10.9489 22.9023 16.4013L 22.9023 27.873C 22.9023 27.873 0.0614463 37.6424 0 49.1364L 0 1.94969e-11L 26.5424 1.94969e-11L 26.5424 0Z"/>
<path id="path7_fill" fill-rule="evenodd" d="M 0 52.4553L 0 18.0301L 8.17233 11.4742L 8.17233 0L 32.7142 0C 32.7142 0 24.2934 6.07357 24.5294 29.5043C 28.5783 30.7579 0 35.5343 0 52.4553Z"/>
<path id="path8_fill" fill-rule="evenodd" d="M 0 0L 21.3514 6.56278L 21.3514 62.3072L 27.9189 62.3072L 29.553 8.20316L 36.1204 0.00498597L 0 0Z"/>
<path id="path9_fill" fill-rule="evenodd" d="M 22.983 49.1866L 22.983 0L 0 0L 0 19.6746C 0 26.1265 7.75158 27.1411 9.84559 32.7915C 11.9409 38.4418 9.84559 52.4661 9.84559 52.4661L 22.983 49.1866Z"/>
<path id="path10_fill" fill-rule="evenodd" d="M 47.6138 80.3389L 0 80.3389L 21.339 0L 47.6138 80.3389Z"/>
<path id="path11_fill" fill-rule="evenodd" d="M 36.1204 49.1866L 0 49.1866L 18.1718 0L 36.1204 49.1866Z"/>
<path id="path12_fill" fill-rule="evenodd" d="M 24.6296 34.4306L 0 34.4306L 12.3896 0L 24.6296 34.4306Z"/>
<path id="path13_fill" fill-rule="evenodd" d="M 37.767 27.8728L 0 27.8728L 18.0608 0L 41.0451 0L 37.767 27.8728Z"/>
<path id="path14_fill" fill-rule="evenodd" d="M 26.2624 47.5474L 0 47.5474L 13.1374 0L 26.2624 47.5474Z"/>
<path id="path15_fill" fill-rule="evenodd" d="M 26.2746 34.4306L 26.2746 0L 0 0L 0 34.4306L 26.2746 34.4306Z"/>
<path id="path16_fill" fill-rule="evenodd" d="M 0 34.4306L 0 0L 8.20778 0.0373948L 14.5023 19.6746L 26.2749 34.4306L 0 34.4306Z"/>
<path id="path17_stroke" d="M 0.5 36.071L 0.5 0L -0.5 0L -0.5 36.071L 0.5 36.071Z"/>
<path id="path18_fill" fill-rule="evenodd" d="M 0 265.687L 101.796 265.687L 101.796 0L 0 0L 0 265.687Z"/>
<path id="path19_fill" fill-rule="evenodd" d="M 0 11.4528L 3.27812 11.4528L 3.27812 0L 0 0L 0 11.4528Z"/>
<path id="path20_fill" fill-rule="evenodd" d="M 0 9.85975L 3.27812 9.85975L 3.27812 0L 0 0L 0 9.85975Z"/>
<path id="path21_fill" fill-rule="evenodd" d="M 0 11.454L 3.83902 11.454L 3.83902 0L 0 0L 0 11.454Z"/>
<path id="path22_fill" fill-rule="evenodd" d="M 0 11.454L 3.82656 11.454L 3.82656 0L 0 0L 0 11.454Z"/>
<path id="path23_fill" fill-rule="evenodd" d="M 0 11.4528L 3.31552 11.4528L 3.31552 0L 0 0L 0 11.4528Z"/>
<path id="path24_fill" fill-rule="evenodd" d="M 27.9077 0.077359C 27.9077 0.077359 19.8183 -1.01332 16.3158 4.99602C 11.7414 12.834 0 13.1942 0 13.1942C 0 13.1942 10.0213 23.6647 17.9487 14.8333C 20.4577 12.0611 24.2419 10.8146 27.9077 11.5551C 27.2097 11.7994 27.9077 0.077359 27.9077 0.077359Z"/>
<path id="path25_fill" fill-rule="evenodd" d="M 22.9843 0C 22.9843 0 16.0416 0.0997195 13.0252 4.91866C 8.99926 11.3393 0 13.1168 0 13.1168C 0 13.1168 9.62248 18.5478 13.0252 14.756C 15.5331 11.9825 19.3185 10.736 22.9843 11.4777C 22.285 11.722 22.9843 0 22.9843 0Z"/>
<path id="path26_fill" fill-rule="evenodd" d="M 13.8665 0L 4.62217 12.4853L 9.24435 12.4853L 1.54072 23.4099L 7.70362 23.4099L 0 35.8952L 10.7851 35.8952L 10.7851 45.2591L 13.8665 45.2591L 13.8665 35.8952L 24.6516 35.8952L 16.948 23.4099L 23.1109 23.4099L 16.948 12.4853L 21.5701 12.4853L 13.8665 0Z"/>
<path id="path27_fill" fill-rule="evenodd" d="M 13.8674 0L 4.62246 12.4853L 9.24339 12.4853L 1.54082 23.4099L 7.70411 23.4099L 0 35.8952L 10.7842 35.8952L 10.7842 45.2591L 13.8674 45.2591L 13.8674 35.8952L 24.6516 35.8952L 16.949 23.4099L 23.1108 23.4099L 16.949 12.4853L 21.5715 12.4853L 13.8674 0Z"/>
<path id="path28_fill" fill-rule="evenodd" d="M 4.62189 12.4853L 9.24377 12.4853L 1.54063 23.4099L 7.70314 23.4099L 0 35.8952L 10.7859 35.8952L 10.7859 45.2591L 13.8657 45.2591L 13.8657 35.8952L 24.6516 35.8952L 16.9469 23.4099L 23.1094 23.4099L 16.9469 12.4853L 21.5688 12.4853L 13.8657 0L 4.62189 12.4853Z"/>
<path id="path29_fill" fill-rule="evenodd" d="M 9.88556 27.1418L 0 27.1418L 8.24206 15.2666L 1.75265 15.2666L 11.5306 0L 21.3101 15.2666L 14.8206 15.2666L 23.0612 27.1418L 13.1772 27.1418L 13.1772 37.3189L 9.88556 37.3189L 9.88556 27.1418Z"/>
<path id="path30_fill" fill-rule="evenodd" d="M 1.75265 15.265L 8.23899 15.265L 0 27.1402L 9.88402 27.1402L 9.88402 37.3189L 13.1741 37.3189L 13.1741 27.1402L 23.0612 27.1402L 14.8206 15.265L 21.3085 15.265L 11.529 0L 1.75265 15.265Z"/>
<path id="path31_fill" fill-rule="evenodd" d="M 9.88556 27.1418L 0 27.1418L 8.24053 15.2666L 1.75265 15.2666L 11.5306 0L 21.3085 15.2666L 14.8206 15.2666L 23.0612 27.1418L 13.1756 27.1418L 13.1756 37.3189L 9.88556 37.3189L 9.88556 27.1418Z"/>
</defs>
</svg>
