<svg id="Layer_1" data-name="Layer 1" xmlns="http://www.w3.org/2000/svg" viewBox="0 0 135 75"><defs><style>.cls-1{fill:#fff;}</style></defs><title>google</title><g id="Canvas"><g id="Google"><g id="Google-2" data-name="Google"><path id="path0_fill" data-name="path0 fill" class="cls-1" d="M57.83609,38.68545a11.43656,11.43656,0,0,1-6.72355,10.66089,10.82025,10.82025,0,0,1-12.11392-2.37008,11.67866,11.67866,0,0,1-2.4721-12.46A11.073,11.073,0,0,1,46.764,27.42812a10.67019,10.67019,0,0,1,7.8407,3.21686A11.366,11.366,0,0,1,57.83609,38.68545Zm-4.84944-.00011a6.24133,6.24133,0,1,0-6.22253,6.82712,6.23388,6.23388,0,0,0,4.5141-2.0531A6.63984,6.63984,0,0,0,52.98665,38.68534Zm28.72753.00011A11.44163,11.44163,0,0,1,74.99,49.35414a10.82487,10.82487,0,0,1-12.12085-2.37007A11.68335,11.68335,0,0,1,60.397,34.517a11.07686,11.07686,0,0,1,10.245-7.08889A10.6702,10.6702,0,0,1,78.4827,30.645,11.36613,11.36613,0,0,1,81.71418,38.68545Zm-4.84954-.00011a6.24133,6.24133,0,1,0-6.22253,6.82712,6.23391,6.23391,0,0,0,4.5141-2.0531A6.63988,6.63988,0,0,0,76.86464,38.68534ZM104.58882,28.1001V48.327c0,8.31588-4.79677,11.71119-10.48234,11.71119a10.49329,10.49329,0,0,1-9.77836-6.63636L88.544,51.6134a6.11134,6.11134,0,0,0,5.56253,3.9945c3.63488,0,5.88808-2.28772,5.88808-6.6V47.38284h-.176A7.41284,7.41284,0,0,1,94.00962,49.943a11.27906,11.27906,0,0,1,0-22.51467,7.5523,7.5523,0,0,1,5.80892,2.51476h.176V28.10922h4.59426Zm-4.251,10.63065c0-3.96735-2.59645-6.87242-5.89688-6.87242-3.33572,0-6.14337,2.90507-6.14337,6.87242a6.61779,6.61779,0,0,0,1.6904,4.722,6.21544,6.21544,0,0,0,4.453,2.05959C97.74136,45.51235,100.33781,42.65258,100.33781,38.73075ZM112.176,16.25238V49.26179h-4.72674V16.25238ZM130.5972,42.39872l3.75791,2.551a10.91176,10.91176,0,0,1-9.18918,4.99314,10.56777,10.56777,0,0,1-7.79287-3.22918,11.26014,11.26014,0,0,1-3.15541-8.02816c0-6.69991,4.71772-11.26635,10.403-11.26635,5.72151,0,8.52839,4.64813,9.44423,7.16289l.50135,1.28009-14.75127,6.23693a5.607,5.607,0,0,0,5.351,3.41345A6.29732,6.29732,0,0,0,130.5972,42.39872Zm-11.57387-4.058,9.85764-4.17614a4.25858,4.25858,0,0,0-4.09324-2.38767,5.93507,5.93507,0,0,0-4.22078,2.03145A6.31529,6.31529,0,0,0,119.02333,38.34067ZM17.80768,35.75312V30.97779h15.772a15.7657,15.7657,0,0,1,.23758,2.887c0,3.58595-.95937,8.01628-4.05739,11.17554a15.51494,15.51494,0,0,1-11.94339,4.90243,17.49,17.49,0,0,1,0-34.97944,16.17746,16.17746,0,0,1,11.741,4.82068l-3.30933,3.3772a11.77318,11.77318,0,0,0-8.44045-3.41351A12.52041,12.52041,0,0,0,5.48576,32.45764,12.52038,12.52038,0,0,0,17.80768,45.16746a11.34258,11.34258,0,0,0,8.65165-3.49514,10.04535,10.04535,0,0,0,2.53478-5.9192Z"/></g></g></g></svg>