<svg id="Layer_1" data-name="Layer 1" xmlns="http://www.w3.org/2000/svg" viewBox="0 0 135 75"><defs><style>.cls-1{fill:#fff;}</style></defs><title>king</title><path class="cls-1" d="M39.89927,74.6281s-3.79693-1.389-6.39154-10.105c-1.17323-3.94111-2.1278-8.93107-3.07306-13.873-1.145-5.9868-2.277-11.90365-3.76823-15.80326-1.61573-4.22845-5.93861-8.32875-9.35984-8.09068A6.1585,6.1585,0,0,0,11.33815,32.154c-.7531,4.68181,3.40814,9.40409,9.19221,6.99659,0,0,2.58241,5.50189,3.2105,19.22093C24.36821,72.08922,28.42571,76.19211,39.89927,74.6281Z"/><path class="cls-1" d="M109.88651,33.15533s-2.78473-4.41852-7.27667-4.41852c-4.4925,0-8.36212,4.89722-9.50507,10.21161a58.69659,58.69659,0,0,0-1.09863,8.48285l-.00055.0069a28.64478,28.64478,0,0,1-.30335,2.96832c-.38971,2.02228-2.83227,6.45477-3.16925,1.55505-.15374-2.23071-.04174-5.161.0658-7.97833a44.65311,44.65311,0,0,0-.09467-8.23163c-.63537-3.03631-2.67462-6.408-5.918-6.408s-6.28565,3.70435-7.52289,8.40894c0,0,.568-9.90985-8.55957-1.3006,0,0,.66815,8.67462-.10089,14.08008-.76947,5.40607-3.64472,5.94025-4.14539.83466-.50189-5.10474-.70233-12.07862-.70233-12.07862l-8.9278,4.43756s1.873,14.01386-2.0061,14.64838c-3.87817.63391-9.14008-13.14758-9.58142-14.71472,0,0,35.62005-6.52808,34.31134-34.07843,0,0-.47339-9.1142-8.54419-9.56818-8.07117-.454-11.42493,11.40173-3.41,15.259,0,0,4.1488,1.81525,7.10467.05738l.10724.23871S70.48435,31.52819,30.626,38.886c0,0,6.76636,28.85919,16.18921,28.80548,0,0,4.65686.32019,6.959-9.02893,0,0,.803,5.23615,5.67475,5.23615,4.87127,0,7.38739-8.33509,7.38739-8.33509s-1.39148,8.1211,8.29864,5.87653c0,0-.322-14.1579.26764-18.48425.58887-4.32752,5.78162-7.4801,5.24664,3.52575l-.0896,1.80262c-.484,9.63269-.65844,13.10284,3.83661,13.10284,4.765,0,8.13672-5.07513,8.35059-7.58624.04877-.57074.056-.51709.113-.09412.19342,1.439.96154,7.14618,5.88372,7.14618a9.2036,9.2036,0,0,0,7.65455-4.86114s.37536,12.01989-9.04645,12.01989a62.39951,62.39951,0,0,1-8.277-.88641c-10.24359-1.50659-24.58282-3.616-37.9267,5.13,0,0,5.07776-2.21485,18.77936-2.148,8.29028.041,16.21185,1.82348,22.44007,3.22509C96.43241,74.24737,99.7761,75,102.03049,75c5.70923,0,10.88123-2.34638,11.15033-19.10175.26782-16.75732,2.14887-18.902,2.14887-18.902s7.706,2.29889,8.401-5.75781C124.23966,25.30706,114.53147,19.91174,109.88651,33.15533Zm-2.8703,17.12042A4.41074,4.41074,0,0,1,103.078,53.139c-2.918,0-4.3288-2.86328-3.30719-10.38513,1.02075-7.52185,5.3974-10.55572,8.70422-5.25323A99.20068,99.20068,0,0,0,107.01621,50.27575Z"/></svg>