<svg version="1.1" id="Layer_1" xmlns="http://www.w3.org/2000/svg" xmlns:xlink="http://www.w3.org/1999/xlink" x="0px" y="0px"
	 viewBox="0 0 146 249.7" style="enable-background:new 0 0 146 249.7;" xml:space="preserve" width="146" height="250">
<path d="M58.5,40.7c3,0,5.5-2.5,5.5-5.5c0-3-2.5-5.5-5.5-5.5c-3,0-5.5,2.5-5.5,5.5C53,38.2,55.5,40.7,58.5,40.7z"/>
<path d="M87.5,29.7c-3,0-5.5,2.5-5.5,5.5c0,3,2.5,5.5,5.5,5.5c3,0,5.5-2.5,5.5-5.5C93,32.1,90.5,29.7,87.5,29.7z"/>
<path d="M53,52.1c0,11.4,9,20.6,20,20.6c11,0,20-9.2,20-20.6v-3.4H53V52.1z M86,55.5c-1.5,6-6.7,10.4-13,10.4
	c-6.2,0-11.5-4.4-13-10.4H86z"/>
<path d="M124.9,65.2V22.5C124.9,10.1,113.4,0,99.2,0h-51C34,0,22.5,10.1,22.5,22.5v41.2c-6.5,7.4-28.4,33.9-20.9,50.8
	c3,7,10.1,11,20.9,11.9v57.2c0,12.4,11.5,22.5,25.7,22.5h6.9c-8,9-18.4,23.5-14.1,34c2.6,6.3,9.4,9.5,20.3,9.5c0.5,0,1,0,1.6,0
	l2.5-0.1l7.5-8.2l0.8,0.8l1.7,1.6l6.1,5.8l2.3,0.1c0.5,0,1.1,0,1.6,0c11,0,18-3.2,20.7-9.5c4.4-10.5-6.2-25-14.3-34h7.5
	c14.2,0,25.7-10.1,25.7-22.5v-57.4c10.1-1.1,16.7-5.1,19.6-11.8C151.4,98.6,132.6,74.2,124.9,65.2z M22.5,114.6
	c-4.3-0.5-8.9-1.7-10.2-4.8c-2.4-5.6,3.2-16.9,10.2-27.1V114.6z M94.9,235.6c-0.3,0.8-2.6,2.1-8.7,2.3l-4.9-4.6l-8.2-9.6l-13,14.2
	c-5.8-0.1-8-1.5-8.3-2.3c-1.6-3.8,6.8-16.9,17.5-27.3l2.2-2.1h3.2l2.2,2.1C88,218.7,96.6,231.7,94.9,235.6z M113,183.7
	c0,5.9-6.2,10.7-13.8,10.7h-51c-7.6,0-13.8-4.8-13.8-10.7v-5.2c2.6,1.4,5.5,2.2,8.7,2.2c6.3,0,11.8-3.2,15-8.1
	c3.2,4.9,8.7,8.1,15,8.1c6.3,0,11.8-3.2,15-8.1c3.2,4.9,8.7,8.1,15,8.1c3.7,0,7.2-1.1,10-3.1V183.7z M113,169.4
	c-2.2,3.2-5.9,5.4-10,5.4c-6.4,0-11.6-5-12-11.3c0-0.3,0-0.5,0-0.8h-0.1h-5.8H85c0,0.3,0,0.5,0,0.8c-0.4,6.3-5.7,11.3-12,11.3
	c-6.4,0-11.7-5-12-11.3c0-0.2,0-0.5,0-0.7h-0.1h-5.8H55c0,0.3,0,0.5,0,0.8c-0.4,6.3-5.6,11.3-12,11.3c-3.4,0-6.5-1.4-8.7-3.7v-31.6
	c2.6,1.4,5.5,2.3,8.7,2.3c6.3,0,11.8-3.2,15-8.1c3.2,4.9,8.7,8.1,15,8.1c6.3,0,11.8-3.2,15-8.1c3.2,4.9,8.7,8.1,15,8.1
	c3.7,0,7.2-1.1,10-3.1V169.4z M113,130.4c-2.2,3.2-5.9,5.4-10,5.4c-6.4,0-11.6-5-12-11.3c0-0.3,0-0.5,0-0.8h-0.1h-5.8H85
	c0,0.3,0,0.5,0,0.8c-0.4,6.3-5.7,11.3-12,11.3c-6.4,0-11.7-5-12-11.3c0-0.2,0-0.5,0-0.7h-0.1h-5.8H55c0,0.3,0,0.5,0,0.8
	c-0.4,6.3-5.6,11.3-12,11.3c-3.4,0-6.5-1.4-8.7-3.7v-30.6c2.6,1.4,5.5,2.2,8.7,2.2c6.3,0,11.8-3.2,15-8.1c3.2,4.9,8.7,8.1,15,8.1
	c6.3,0,11.8-3.2,15-8.1c3.2,4.9,8.7,8.1,15,8.1c3.7,0,7.2-1.1,10-3.1V130.4z M113,92.4c-2.2,3.2-5.9,5.4-10,5.4
	c-6.4,0-11.6-5-12-11.3c0-0.3,0-0.5,0-0.8h-0.1h-5.8H85c0,0.3,0,0.5,0,0.8c-0.4,6.3-5.6,11.3-12,11.3c-6.4,0-11.7-5-12-11.3
	c0-0.2,0-0.5,0-0.7h-0.1h-5.8H55c0,0.3,0,0.5,0,0.8c-0.4,6.3-5.6,11.3-12,11.3c-3.4,0-6.5-1.4-8.7-3.7V22.5
	c0-5.9,6.2-10.7,13.8-10.7h51c7.6,0,13.8,4.8,13.8,10.7V92.4z M133.8,109.8c-1.2,2.8-5,4.1-8.9,4.6V84.7
	C131.3,94.3,136.1,104.6,133.8,109.8z"/>
</svg>
