<svg id="Layer_1" data-name="Layer 1" xmlns="http://www.w3.org/2000/svg" viewBox="0 0 135 75"><defs><style>.cls-1{fill:#fff;}</style></defs><title>nhs</title><path class="cls-1" d="M.18324,10.15509V64.84491H135V10.15509ZM30.47871,58.99168,21.2996,28.3635h-.12413L15.07034,58.99168H3.99881L13.3765,14.72831H28.02505L37.02182,45.423h.1249l6.16265-30.69471H54.38082L45.0775,58.99168Zm44.78084,0,3.89832-18.9579H65.25308l-3.89917,18.9579H49.59615l9.12159-44.26337H70.475L67.022,31.66184H80.91747l3.4629-16.93353H96.13666l-9.1209,44.26337Zm51.819-34.24254a21.98,21.98,0,0,0-9.68385-2.02391c-4.651,0-8.42674.69182-8.42674,4.24772,0,2.545,2.8071,3.67227,6.14293,5.01112,4.88419,1.96057,10.90183,4.37635,10.90183,12.36528,0,12.23532-11.26257,15.40813-21.44922,15.40813a48.61167,48.61167,0,0,1-13.58194-2.29033l2.76736-9.003c2.321,1.52523,6.98069,2.53937,10.81458,2.53937,3.653,0,9.36938-.69866,9.36938-5.2638,0-3.05544-3.15154-4.30369-6.74416-5.7277-4.76255-1.88667-10.3006-4.08137-10.3006-11.1983,0-11.41938,9.93979-14.84308,19.56519-14.84308,5.41113,0,10.50112.57445,13.45929,1.96492Z"/></svg>