<svg id="Layer_1" data-name="Layer 1" xmlns="http://www.w3.org/2000/svg" viewBox="0 0 135 75"><defs><style>.cls-1{fill:#fff;}</style></defs><title>wwf</title><g id="Canvas"><g id="WWF"><g id="WWF-2" data-name="WWF"><path id="path0_fill" data-name="path0 fill" class="cls-1" d="M65.57012.00525A4.80934,4.80934,0,0,0,62.56261,1.098C61.12743,2.35149,59.69225,3.65853,59.745,5.37268a4.17294,4.17294,0,0,0,.98143,2.66765.58756.58756,0,0,1,0,.99635,18.20011,18.20011,0,0,0-7.88288,15.59884,34.24519,34.24519,0,0,1-.095,5.453,15.111,15.111,0,0,0,.897,5.71032c.01055.01071.21106.51429-.23215.21428a16.05661,16.05661,0,0,1-5.1708-5.73174A16.86662,16.86662,0,0,1,54.46867,7.6975a16.42863,16.42863,0,0,0-11.7451,15.93087c0,.58929.03166,1.16773.08442,1.73559a16.20519,16.20519,0,0,0,.56984,4.24259,14.571,14.571,0,0,1,.48542,4.4246c0,.46072.15829,15.34167,8.83258,15.2881,0,0,4.13664.10714,4.16825-1.607a4.12218,4.12218,0,0,0-.79141-2.53916c-.36934-.82486-.6437-.87843-.44321-3.54616a.6729.6729,0,0,1,.2005-.54629c.20051-.02143,2.617,7.285,5.75122,11.10978a10.1811,10.1811,0,0,0,8.62153,4.22117s4.46371,0,4.46371-2.26058-2.02607-1.36058-2.02607-8.54934,3.41906-6.83519,3.82005-5.07818.73875,3.17117.04218,7.89577S77.69509,53.701,79.43629,53.701s10.85867.3,12.452-26.15146A23.03119,23.03119,0,0,0,90.696,19.6002s.59089,7.03863-3.7251,10.80979-6.79594,3.22473-6.79594,3.22473-2.07884-.15-2.92313.9c-.84415,1.04986-.69643,1.81058-2.47982,1.26415s-1.794-1.007-3.42965-.80357-2.62755.39643-3.27121-.96416a3.71448,3.71448,0,0,0-2.70148-2.47486c-1.34022-.257-7.22866-3.09617-7.07036-11.09908.14772-7.44583,3.47183-10.00635,3.47183-10.00635a1.09392,1.09392,0,0,1,1.09755-.35355,2.20485,2.20485,0,0,0,2.47982-.65351A8.79919,8.79919,0,0,1,68.968,7.07612a1.48208,1.48208,0,0,0,1.24527-1.51059c-.05277-1.307-1.09754-4.16753-2.43777-5.02461A3.97719,3.97719,0,0,0,65.57012.00525Zm4.49531,35.99707a3.79248,3.79248,0,0,1,1.19251.36428,9.02156,9.02156,0,0,0,2.77527.0963c.591-.04286.992.21428.5171.78214a2.93626,2.93626,0,0,1-2.42706.82487,3.38468,3.38468,0,0,1-2.05782-.91058,1.09242,1.09242,0,0,1-.3166-.98558A.348.348,0,0,1,70.06543,36.00232ZM65.00025,19.9535c1.1396-1.42486,1.78339-1.607,2.77527-1.607a2.90892,2.90892,0,0,1,2.77541,2.207c.45375,1.71416.67526,1.9713-.92867,3.889-1.16076,1.36058-3.23973,4.36031-5.31857,2.4533S62.9952,22.4498,65.00025,19.9535Zm18.63591,2.66773c-.6754-1.71415-1.23469-2.07844-2.18438-2.38915a2.90269,2.90269,0,0,0-3.30295,1.275c-.92866,1.48915-1.25585,1.62844-.285,3.94246.69656,1.66058,1.82571,5.18532,4.37947,3.99616S84.8075,25.59954,83.63616,22.62123ZM72.64035,33.83843a3.20746,3.20746,0,0,1,2.4904-1.14629.8363.8363,0,0,0,.64527-.22286.86324.86324,0,0,0,.27281-.63415s.0738-.83572-3.32411-1.16787c-3.37688-.332-3.47183.55715-3.47183.55715a.86687.86687,0,0,0,.165.6671.84036.84036,0,0,0,.59478.3292A3.23968,3.23968,0,0,1,72.23936,33.817C72.31316,34.042,72.52423,34.042,72.64035,33.83843Zm15.9872-20.6232a2.22544,2.22544,0,0,1-2.39545-.93206,8.76318,8.76318,0,0,0-3.33455-2.75336,1.47919,1.47919,0,0,1-1.07639-1.63916c.20049-1.29633,1.54072-4.02825,2.96532-4.72463a4.76754,4.76754,0,0,1,5.118,1.13562c1.298,1.40347,2.58536,2.87121,2.34268,4.56393a4.13793,4.13793,0,0,1-1.27688,2.53909h.02116A13.11314,13.11314,0,0,1,88.62755,13.21523ZM52.60086,50.69081a2.25013,2.25013,0,1,0,2.21605,2.24987A2.23315,2.23315,0,0,0,52.60086,50.69081Zm-1.03414,3.29961a1.49352,1.49352,0,0,1,.01465-2.07429,1.43972,1.43972,0,0,1,2.04312-.01487,1.46092,1.46092,0,0,1,.4221,1.03916,1.47773,1.47773,0,0,1-.89511,1.36446A1.43919,1.43919,0,0,1,51.56672,53.99042Zm1.51955-.82487.37989.12857a.83225.83225,0,0,1-.28492.47143.90979.90979,0,0,1-1.16079-.10714,1.09073,1.09073,0,0,1-.2427-.73929,1.12967,1.12967,0,0,1,.2427-.76058.85986.85986,0,0,1,.66483-.26786.78128.78128,0,0,1,.58039.21429.9063.9063,0,0,1,.20049.36428l-.39044.08572a.43087.43087,0,0,0-.41155-.33214.41918.41918,0,0,0-.34824.16071,1.05278,1.05278,0,0,0,0,1.03915.43661.43661,0,0,0,.612.06429A.571.571,0,0,0,53.08627,53.16555ZM89.14465,55.5543a2.25006,2.25006,0,0,0,0,4.4996,2.18086,2.18086,0,0,0,1.57233-.65357,2.26483,2.26483,0,0,0-1.57233-3.846ZM88.121,58.854a1.48605,1.48605,0,0,1-.3229-1.60862,1.4478,1.4478,0,0,1,1.34652-.909,1.47022,1.47022,0,0,1,1.45621,1.46773,1.46007,1.46007,0,0,1-.422,1.03915A1.43683,1.43683,0,0,1,88.121,58.854Zm.26385-.064v-1.9713H89.208a1.48824,1.48824,0,0,1,.45375.05357.44726.44726,0,0,1,.2321.19286.59282.59282,0,0,1,.08451.31058.52678.52678,0,0,1-.1267.36429.63969.63969,0,0,1-.3904.18214,1.22184,1.22184,0,0,1,.21107.16072,3.50855,3.50855,0,0,1,.22152.32143l.24281.38571h-.47491l-.285-.42857c-.095-.15-.16875-.24643-.20049-.28929a.62626.62626,0,0,0-.116-.08571.879.879,0,0,0-.20049-.02143h-.08451v.825Zm.39053-1.13571h.29545a1.8591,1.8591,0,0,0,.34821-.02143.23974.23974,0,0,0,.11612-.08572.31581.31581,0,0,0,.03161-.15.262.262,0,0,0-.04219-.16071.24653.24653,0,0,0-.14772-.075,1.71621,1.71621,0,0,0-.29545-.01072h-.306ZM44.32756,61.4256h2.52208a.843.843,0,0,1,.91808.55715c.29547.79272,1.55124,5.88161,1.55124,5.88161l1.7834-2.689s-.72813-3.76045.54875-3.74974c1.55124.02143,2.406,0,2.406,0a1.15837,1.15837,0,0,1,1.00249.98559c.45377,1.22142,1.55122,5.52817,1.55122,5.52817l2.55375-5.88161a1.222,1.222,0,0,1,.9075-.63215.74142.74142,0,0,1,.65759.23036.76736.76736,0,0,1,.1867.68023c-.20049.73928-4.42166,11.98836-4.42166,11.98836a1.07518,1.07518,0,0,1-.8758.675c-.591,0-.84422-.35358-1.1608-1.17844s-2.311-6.28889-2.311-6.28889L49.129,74.46383a.86079.86079,0,0,1-.69647.53572,1.06979,1.06979,0,0,1-1.05526-.78215c-.28492-.53558-3.82006-10.80979-3.82006-10.80979S42.85019,61.4256,44.32756,61.4256Zm18.64648,0h2.52215a.843.843,0,0,1,.91808.55715c.306.79272,1.55116,5.88161,1.55116,5.88161l1.794-2.689s-.72818-3.76045.5487-3.74974c1.54072.02143,2.406,0,2.406,0a1.14389,1.14389,0,0,1,.992.98559c.45375,1.22142,1.56174,5.52817,1.56174,5.52817l2.54318-5.88161a1.22511,1.22511,0,0,1,.91808-.63215.73229.73229,0,0,1,.65531.23036.75819.75819,0,0,1,.1784.68023c-.2005.73928-4.41108,11.98836-4.41108,11.98836a1.09828,1.09828,0,0,1-.88634.675c-.591,0-.83371-.35358-1.15032-1.17844s-2.32152-6.28889-2.32152-6.28889l-3.0075,6.93161a.88386.88386,0,0,1-.707.53572,1.0784,1.0784,0,0,1-1.05536-.78215c-.27428-.53558-3.82005-10.80979-3.82005-10.80979S61.50725,61.4256,62.974,61.4256ZM81.6417,74.99928s-.86532.075-.86532-1.307V62.27163s0-.857,1.23469-.857h8.48438a.94063.94063,0,0,1,.71987.25447.97132.97132,0,0,1,.30375.70968.86453.86453,0,0,1-.26678.67635.83634.83634,0,0,1-.683.22366H85.51451a.57492.57492,0,0,0-.42027.16111.59278.59278,0,0,0-.1812.41732v2.81773h3.894a.98841.98841,0,0,1,1.05522.82487.89959.89959,0,0,1-.87589.87857H84.892v5.4959s.06322,1.125-.66482,1.125C83.73112,74.99928,81.6417,74.96714,81.6417,74.99928Z"/></g></g></g></svg>